<svg xmlns="http://www.w3.org/2000/svg" aria-hidden="true" style="width:0;height:0;position:absolute;overflow:hidden"><defs><symbol id="icon-logos_wordpress" viewBox="0 0 141 32"><path d="M81.83 12.506h-5.554v.585c1.737 0 2.017.369 2.017 2.556v3.942c0 2.186-.279 2.587-2.017 2.587-1.334-.185-2.233-.893-3.475-2.248l-1.427-1.54c1.923-.339 2.947-1.54 2.947-2.895 0-1.693-1.457-2.987-4.188-2.987h-5.461v.585c1.737 0 2.017.369 2.017 2.556v3.942c0 2.186-.279 2.587-2.017 2.587v.585h6.174v-.585c-1.737 0-2.016-.4-2.016-2.587v-1.108h.527l3.444 4.28h9.029c4.437 0 6.361-2.34 6.361-5.143s-1.924-5.112-6.361-5.112zm-13 5.02v-4.095h1.272c1.396 0 2.017.955 2.017 2.063 0 1.078-.621 2.032-2.017 2.032H68.83zm13.093 4.281h-.217c-1.116 0-1.271-.277-1.271-1.694V13.43h1.489c3.227 0 3.816 2.34 3.816 4.157 0 1.878-.589 4.219-3.816 4.219zM47.39 18.666l2.141-6.283c.621-1.817.341-2.34-1.644-2.34v-.616h5.833v.616c-1.955 0-2.42.462-3.196 2.71l-3.538 10.532h-.403l-3.165-9.639-3.227 9.639h-.403l-3.444-10.532c-.745-2.248-1.241-2.71-3.041-2.71v-.616h6.888v.616c-1.831 0-2.328.431-1.675 2.34l2.079 6.282 3.134-9.239h.59l3.072 9.239zm10.549 4.495c-3.413 0-6.205-2.494-6.205-5.543 0-3.018 2.793-5.512 6.205-5.512s6.205 2.495 6.205 5.512c0 3.049-2.792 5.543-6.205 5.543zm0-10.1c-2.854 0-3.847 2.556-3.847 4.557 0 2.033.993 4.558 3.847 4.558 2.886 0 3.879-2.525 3.879-4.558 0-2.002-.993-4.557-3.879-4.557zm37.915 9.084v.616h-7.105v-.616c2.079 0 2.452-.523 2.452-3.603v-4.927c0-3.08-.372-3.572-2.452-3.572v-.616h6.423c3.196 0 4.964 1.632 4.964 3.819 0 2.125-1.769 3.788-4.964 3.788h-1.769v1.508c0 3.08.372 3.604 2.452 3.604zm-.683-11.61h-1.769v5.359h1.769c1.737 0 2.545-1.201 2.545-2.648 0-1.478-.807-2.71-2.545-2.71zm26.28 9.331-.155.554c-.279 1.016-.621 1.386-2.824 1.386h-.435c-1.612 0-1.892-.37-1.892-2.556v-1.417c2.42 0 2.607.215 2.607 1.817h.59v-4.589h-.59c0 1.601-.186 1.817-2.607 1.817v-3.449h1.706c2.204 0 2.545.37 2.824 1.386l.156.585h.496l-.217-2.895h-9.123v.585c1.737 0 2.017.369 2.017 2.556v3.942c0 2-.238 2.504-1.607 2.576-1.302-.197-2.196-.902-3.419-2.237l-1.428-1.54c1.924-.339 2.948-1.54 2.948-2.895 0-1.693-1.459-2.987-4.189-2.987h-5.46v.585c1.737 0 2.017.369 2.017 2.556v3.942c0 2.186-.279 2.587-2.017 2.587v.585h6.175v-.585c-1.737 0-2.017-.4-2.017-2.587V18.48h.527l3.444 4.28h12.752l.187-2.894h-.466zm-16.444-2.34v-4.095h1.272c1.396 0 2.017.955 2.017 2.063 0 1.078-.621 2.032-2.017 2.032h-1.272zm22.742 5.635c-1.241 0-2.327-.647-2.793-1.047-.155.154-.434.616-.496 1.047h-.59v-4.249h.621c.248 2.032 1.675 3.233 3.506 3.233.993 0 1.799-.554 1.799-1.478 0-.8-.713-1.417-1.985-2.001l-1.769-.831c-1.241-.586-2.172-1.602-2.172-2.957 0-1.478 1.396-2.741 3.32-2.741 1.025 0 1.892.37 2.42.801.155-.123.311-.462.404-.832h.59v3.635h-.652c-.218-1.448-1.024-2.649-2.668-2.649-.869 0-1.676.493-1.676 1.263 0 .8.652 1.231 2.142 1.909l1.705.831c1.49.708 2.079 1.848 2.079 2.772 0 1.94-1.707 3.295-3.785 3.295zm9.556 0c-1.241 0-2.327-.647-2.793-1.047-.155.154-.434.616-.496 1.047h-.589v-4.249h.62c.248 2.032 1.676 3.233 3.506 3.233.993 0 1.8-.554 1.8-1.478 0-.8-.713-1.417-1.986-2.001l-1.769-.831c-1.241-.586-2.172-1.602-2.172-2.957 0-1.478 1.396-2.741 3.32-2.741 1.024 0 1.892.37 2.42.801.155-.123.31-.462.403-.832h.59v3.635h-.652c-.217-1.448-1.024-2.649-2.668-2.649-.868 0-1.676.493-1.676 1.263 0 .8.652 1.231 2.141 1.909l1.706.831c1.489.708 2.079 1.848 2.079 2.772 0 1.94-1.706 3.295-3.785 3.295zM2.275 15.886c0 5.395 3.159 10.056 7.739 12.266L3.464 10.34a13.501 13.501 0 0 0-1.189 5.547zm23.001-.688c0-1.684-.61-2.851-1.133-3.759-.696-1.122-1.348-2.073-1.348-3.196 0-1.253.957-2.419 2.306-2.419.061 0 .118.008.178.011a13.74 13.74 0 0 0-9.273-3.577A13.743 13.743 0 0 0 4.533 8.401c.322.009.626.016.884.016 1.436 0 3.66-.173 3.66-.173.74-.043.827 1.036.088 1.123 0 0-.744.087-1.572.13l5 14.762 3.005-8.945-2.139-5.817c-.739-.043-1.44-.13-1.44-.13-.74-.043-.653-1.166.086-1.122 0 0 2.268.173 3.617.173 1.436 0 3.66-.173 3.66-.173.74-.043.828 1.035.088 1.122 0 0-.745.087-1.572.13l4.962 14.65 1.37-4.543c.594-1.885 1.046-3.239 1.046-4.405zm-9.029 1.88-4.12 11.882a13.836 13.836 0 0 0 8.439-.218 1.198 1.198 0 0 1-.098-.188l-4.221-11.477zm11.808-7.73c.059.434.093.9.093 1.401 0 1.383-.26 2.937-1.044 4.881L22.91 27.666c4.082-2.363 6.828-6.752 6.828-11.78 0-2.37-.61-4.598-1.682-6.539zM16.006 0C7.18 0 0 7.126 0 15.886c0 8.761 7.181 15.887 16.006 15.887s16.007-7.126 16.007-15.887C32.013 7.126 24.831 0 16.006 0zm0 31.045c-8.421 0-15.273-6.8-15.273-15.159S7.584.728 16.006.728c8.421 0 15.272 6.8 15.272 15.158s-6.851 15.159-15.272 15.159z"/></symbol><symbol id="icon-logos_slack" viewBox="0 0 127 32"><path d="m40.481 25.079 1.58-3.652c1.708 1.268 3.977 1.927 6.22 1.927 1.657 0 2.702-.634 2.702-1.598-.026-2.688-9.916-.583-9.993-7.329-.025-3.423 3.034-6.061 7.367-6.061 2.575 0 5.149.634 6.985 2.079l-1.479 3.728c-1.682-1.065-3.773-1.826-5.761-1.826-1.351 0-2.243.634-2.243 1.445.026 2.637 9.993 1.192 10.095 7.633 0 3.5-2.982 5.959-7.265 5.959-3.136 0-6.016-.736-8.208-2.308zm60.645-4.97 4.359 2.409a9.512 9.512 0 0 1-8.336 4.869c-5.277 0-9.559-4.26-9.559-9.509s4.283-9.509 9.559-9.509a9.593 9.593 0 0 1 8.336 4.869l-4.359 2.409a4.591 4.591 0 0 0-3.977-2.307c-2.523 0-4.563 2.029-4.563 4.539s2.04 4.539 4.563 4.539a4.59 4.59 0 0 0 3.977-2.308h.001zM58.147.482h5.455v26.55h-5.455V.482zm49.479 0h5.456v15.595l6.169-7.329h6.679l-7.622 8.825 8.234 9.459h-6.984l-6.475-7.962v7.962h-5.456V.482zM79.815 20.16v-4.489c-.79-1.319-2.422-2.333-4.257-2.333-2.524 0-4.563 2.029-4.563 4.539s2.039 4.539 4.563 4.539c1.835 0 3.466-.964 4.257-2.257zm0-11.411h5.456v18.258h-5.456v-2.155c-.892 1.496-3.11 2.536-5.43 2.536-4.793 0-8.566-4.26-8.566-9.535s3.773-9.484 8.566-9.484c2.32 0 4.537 1.04 5.43 2.536V8.749zM6.755 20.134a3.353 3.353 0 0 1-3.365 3.347 3.384 3.384 0 0 1-2.38-.98 3.338 3.338 0 0 1-.984-2.368 3.353 3.353 0 0 1 3.365-3.347h3.365v3.347zm1.683 0c0-1.851 1.504-3.347 3.365-3.347s3.365 1.496 3.365 3.347v8.368a3.353 3.353 0 0 1-3.365 3.347 3.384 3.384 0 0 1-2.38-.98 3.338 3.338 0 0 1-.984-2.367v-8.368zm3.365-13.439a3.384 3.384 0 0 1-2.38-.98 3.338 3.338 0 0 1-.984-2.367c0-1.851 1.504-3.347 3.365-3.347s3.365 1.496 3.365 3.347v3.347h-3.365zm0 1.699c1.861 0 3.365 1.496 3.365 3.347s-1.504 3.347-3.365 3.347H3.365a3.384 3.384 0 0 1-2.38-.98 3.338 3.338 0 0 1-.984-2.367 3.353 3.353 0 0 1 3.365-3.347h8.438zm13.485 3.347c0-1.851 1.504-3.347 3.365-3.347s3.365 1.496 3.365 3.347-1.504 3.347-3.365 3.347h-3.365v-3.347zm-1.683 0a3.353 3.353 0 0 1-3.365 3.347 3.384 3.384 0 0 1-2.38-.98 3.338 3.338 0 0 1-.984-2.367V3.347C16.876 1.496 18.38 0 20.241 0s3.365 1.496 3.365 3.347v8.394zM20.24 25.155c1.861 0 3.365 1.496 3.365 3.347s-1.504 3.347-3.365 3.347a3.384 3.384 0 0 1-2.38-.98 3.332 3.332 0 0 1-.984-2.368v-3.347h3.365zm0-1.673a3.384 3.384 0 0 1-2.38-.98 3.338 3.338 0 0 1-.984-2.367 3.353 3.353 0 0 1 3.365-3.347h8.438c1.861 0 3.365 1.496 3.365 3.347s-1.504 3.347-3.365 3.347h-8.438z"/></symbol><symbol id="icon-logos_google" viewBox="0 0 99 32"><path d="m95.442 19.557 2.733 1.804c-.887 1.293-3.009 3.512-6.677 3.512-4.554 0-7.946-3.489-7.946-7.926 0-4.723 3.428-7.926 7.563-7.926 4.159 0 6.197 3.275 6.856 5.043l.36.902-10.715 4.39c.814 1.59 2.086 2.397 3.883 2.397 1.798 0 3.044-.878 3.944-2.195zm-8.402-2.86 7.155-2.943c-.396-.985-1.57-1.685-2.973-1.685-1.786 0-4.267 1.566-4.183 4.628zM78.386.939h3.452v23.209h-3.452V.939zm-5.442 8.698h3.332v14.097c0 5.85-3.487 8.259-7.611 8.259-3.883 0-6.22-2.587-7.095-4.687l3.056-1.258c.551 1.293 1.882 2.824 4.039 2.824 2.649 0 4.279-1.626 4.279-4.663V23.07h-.12c-.791.949-2.302 1.803-4.219 1.803-4.003 0-7.671-3.453-7.671-7.902 0-4.474 3.668-7.962 7.671-7.962 1.906 0 3.428.842 4.219 1.768h.12V9.638zm.24 7.333c0-2.8-1.882-4.841-4.279-4.841-2.421 0-4.459 2.041-4.459 4.841 0 2.765 2.038 4.77 4.459 4.77 2.397.012 4.279-2.005 4.279-4.77zm-31.199-.059c0 4.568-3.596 7.926-8.006 7.926s-8.006-3.37-8.006-7.926c0-4.592 3.596-7.938 8.006-7.938s8.006 3.346 8.006 7.938zm-3.5 0c0-2.848-2.086-4.806-4.507-4.806s-4.507 1.958-4.507 4.806c0 2.824 2.086 4.806 4.507 4.806s4.507-1.982 4.507-4.806zm20.987.035c0 4.568-3.596 7.926-8.006 7.926s-8.006-3.358-8.006-7.926c0-4.592 3.596-7.926 8.006-7.926s8.006 3.322 8.006 7.926zm-3.512 0c0-2.848-2.085-4.806-4.507-4.806s-4.507 1.958-4.507 4.806c0 2.824 2.086 4.806 4.507 4.806 2.433 0 4.507-1.994 4.507-4.806zm-43.148 4.45c-5.022 0-8.953-4.011-8.953-8.982s3.931-8.982 8.953-8.982c2.709 0 4.686 1.056 6.149 2.409l2.409-2.385C19.332 1.522 16.612.05 12.812.05 5.932.05.143 5.604.143 12.414s5.789 12.364 12.669 12.364c3.716 0 6.52-1.21 8.714-3.465 2.253-2.231 2.948-5.363 2.948-7.903 0-.795-.096-1.614-.204-2.219H12.812v3.299h8.162c-.24 2.065-.899 3.477-1.87 4.438-1.175 1.175-3.032 2.468-6.292 2.468z"/></symbol><symbol id="icon-logos_microsoft" viewBox="0 0 147 32"><path d="M147.012 14.381v-2.619h-3.211V7.691l-.108.034-3.075.953v3.085h-4.76v-1.718c0-.8.177-1.413.525-1.821.345-.404.84-.609 1.47-.609.453 0 .923.108 1.395.322l.119.053V5.232l-.056-.021c-.441-.161-1.041-.241-1.784-.241-.936 0-1.787.207-2.53.616s-1.326.994-1.736 1.738c-.408.743-.614 1.601-.614 2.55v1.889h-2.236v2.619h2.236v11.032h3.209V14.382h4.76v7.011c0 2.888 1.345 4.351 3.996 4.351a6.5 6.5 0 0 0 1.363-.153c.477-.104.801-.208.992-.319l.043-.025v-2.643l-.131.087a2.207 2.207 0 0 1-.645.285 2.41 2.41 0 0 1-.634.109c-.621 0-1.08-.17-1.366-.504-.289-.337-.434-.928-.434-1.754v-6.445h3.211zm-23.766 8.704c-1.164 0-2.083-.392-2.73-1.162-.651-.775-.981-1.879-.981-3.282 0-1.447.33-2.58.981-3.369.648-.783 1.557-1.181 2.704-1.181 1.113 0 1.999.38 2.633 1.129.638.753.962 1.877.962 3.342 0 1.482-.305 2.621-.904 3.383-.597.756-1.493 1.14-2.664 1.14zm.143-11.651c-2.222 0-3.988.659-5.246 1.96s-1.896 3.101-1.896 5.352c0 2.137.622 3.857 1.851 5.109s2.898 1.888 4.965 1.888c2.155 0 3.885-.669 5.143-1.988s1.895-3.101 1.895-5.299c0-2.171-.598-3.903-1.778-5.147-1.181-1.245-2.841-1.876-4.935-1.876zm-12.316 0c-1.512 0-2.762.392-3.717 1.164-.961.777-1.448 1.796-1.448 3.029 0 .641.105 1.21.312 1.693a3.4 3.4 0 0 0 .959 1.269c.425.355 1.081.727 1.95 1.106.731.305 1.276.562 1.622.765.339.199.579.399.715.594.132.191.199.451.199.774 0 .917-.678 1.363-2.073 1.363-.517 0-1.108-.109-1.755-.325a6.581 6.581 0 0 1-1.797-.923l-.133-.097v3.13l.049.023c.454.212 1.027.391 1.701.532s1.285.213 1.817.213c1.64 0 2.962-.394 3.925-1.171.97-.782 1.462-1.825 1.462-3.101 0-.92-.265-1.709-.786-2.346-.518-.631-1.417-1.211-2.672-1.723-.999-.406-1.639-.743-1.903-1.002-.254-.25-.384-.604-.384-1.051 0-.397.16-.715.488-.973.33-.259.789-.391 1.365-.391.535 0 1.082.085 1.626.253s1.022.392 1.42.667l.131.091v-2.969l-.05-.022c-.368-.16-.853-.296-1.442-.407a8.7 8.7 0 0 0-1.581-.165zM97.541 23.085c-1.165 0-2.083-.391-2.731-1.162-.651-.775-.981-1.879-.981-3.282 0-1.447.33-2.58.981-3.369.647-.783 1.557-1.181 2.704-1.181 1.112 0 1.998.38 2.633 1.129.637.753.961 1.877.961 3.342 0 1.482-.304 2.621-.904 3.383-.596.756-1.492 1.14-2.664 1.14zm.143-11.651c-2.223 0-3.989.659-5.246 1.96s-1.896 3.101-1.896 5.352c0 2.138.623 3.857 1.851 5.109s2.899 1.888 4.966 1.888c2.154 0 3.884-.669 5.142-1.988s1.896-3.101 1.896-5.299c0-2.171-.598-3.903-1.778-5.147s-2.841-1.876-4.934-1.876zM85.67 14.127v-2.364H82.5v13.651h3.17v-6.983c0-1.188.266-2.163.79-2.9.518-.728 1.208-1.097 2.05-1.097.286 0 .606.047.953.142.344.094.593.195.74.303l.133.098V11.74l-.051-.022c-.296-.127-.713-.191-1.242-.191-.796 0-1.509.259-2.12.77-.536.449-.923 1.064-1.22 1.831h-.034zm-8.847-2.693c-1.455 0-2.752.316-3.856.938a6.28 6.28 0 0 0-2.542 2.648c-.579 1.131-.873 2.451-.873 3.923 0 1.29.285 2.473.848 3.517a6.006 6.006 0 0 0 2.372 2.429c1.009.566 2.175.854 3.466.854 1.506 0 2.793-.305 3.824-.907l.042-.024V21.87l-.133.099a5.954 5.954 0 0 1-1.551.818c-.56.198-1.071.298-1.519.298-1.243 0-2.242-.395-2.967-1.172-.727-.778-1.095-1.871-1.095-3.247 0-1.384.384-2.505 1.141-3.332.754-.824 1.755-1.243 2.973-1.243 1.042 0 2.057.357 3.018 1.063l.133.098v-3.1l-.043-.025c-.361-.205-.854-.374-1.467-.502a8.65 8.65 0 0 0-1.772-.193h.001zm-9.455.329h-3.17v13.651h3.17V11.763zm-1.553-5.816a1.9 1.9 0 0 0-1.351.536 1.784 1.784 0 0 0-.566 1.339c0 .523.188.965.56 1.313.369.347.826.523 1.356.523s.989-.176 1.363-.523c.376-.348.567-.79.567-1.313 0-.513-.186-.959-.552-1.325s-.829-.551-1.378-.551zm-7.909 4.808v14.658h3.235V6.365h-4.477l-5.692 14.148-5.523-14.148h-4.66v19.048h3.04v-14.66h.105l5.833 14.659h2.294l5.741-14.658h.105zm-42.992 4.351H0V0h14.914v15.106zm16.466 0H16.467V0H31.38v15.106zM14.913 31.791H0V16.685h14.913v15.106zm16.467 0H16.467V16.685H31.38v15.106z"/></symbol></defs></svg>