<svg version="1.0" xmlns="http://www.w3.org/2000/svg" width="933.333" height="933.333" viewBox="0 0 700 700"><path d="M132.9.4c-.2.2-2.7.6-5.6 1-2.8.3-5.7.8-6.5 1-.7.3-2.9.7-4.9 1-8.4 1.2-23.8 6.8-36.4 13.2-16.9 8.7-27.3 16.9-45.7 36.5-4.1 4.3-13.2 18.4-17.7 27.5-5 9.8-11.5 27.6-12.6 34.4-.3 1.9-1.1 6.2-1.8 9.5C.8 129.1.5 180.7.5 348c0 119.6.3 220 .7 223 3.5 29.7 18 60.8 38.3 82 23.2 24.3 50.5 39 83.6 45 10 1.7 19.6 1.8 229.4 1.6 120.5-.1 220.4-.5 222-.9 1.7-.4 5.5-1.2 8.5-1.8 15.9-3.1 39-12.9 52-22.1 9.5-6.6 10.3-7.2 12.1-8.8.8-.8 3.8-3.6 6.6-6.2 2.7-2.5 7.3-7.3 10.2-10.6 5.5-6.2 17.6-23.2 16.6-23.2-.4 0 .2-1.2 1.3-2.8 5-7.3 12-26.1 15.4-41.5l2.3-10.2.2-217.5c.1-132.1-.2-220.1-.8-224-.5-3.6-1.1-8.1-1.4-10-.9-5.8-5.1-20-8.3-28C671.9 48.9 634.6 16.4 589 4.5c-5.6-1.5-7.2-1.7-19-3.4-6-.9-436.2-1.6-437.1-.7z"/></svg>