<?xml version="1.0" standalone="no"?>
<!DOCTYPE svg PUBLIC "-//W3C//DTD SVG 20010904//EN"
 "http://www.w3.org/TR/2001/REC-SVG-20010904/DTD/svg10.dtd">
<svg version="1.0" xmlns="http://www.w3.org/2000/svg"
 width="700.000000pt" height="700.000000pt" viewBox="0 0 700.000000 700.000000"
 preserveAspectRatio="xMidYMid meet">
<metadata>
Created by potrace 1.14, written by Peter Selinger 2001-2017
</metadata>
<g transform="translate(0.000000,700.000000) scale(0.100000,-0.100000)"
fill="#000000" stroke="none">
<path d="M1329 6996 c-2 -2 -27 -6 -56 -10 -28 -3 -57 -8 -65 -10 -7 -3 -29
-7 -49 -10 -84 -12 -238 -68 -364 -132 -169 -87 -273 -169 -457 -365 -41 -43
-132 -184 -177 -275 -50 -98 -115 -276 -126 -344 -3 -19 -11 -62 -18 -95 -9
-46 -12 -562 -12 -2235 0 -1196 3 -2200 7 -2230 35 -297 180 -608 383 -820
232 -243 505 -390 836 -450 100 -17 196 -18 2294 -16 1205 1 2204 5 2220 9 17
4 55 12 85 18 159 31 390 129 520 221 95 66 103 72 121 88 8 8 38 36 66 62 27
25 73 73 102 106 55 62 176 232 166 232 -4 0 2 12 13 28 50 73 120 261 154
415 l23 102 2 2175 c1 1321 -2 2201 -8 2240 -5 36 -11 81 -14 100 -9 58 -51
200 -83 280 -173 431 -546 756 -1002 875 -56 15 -72 17 -190 34 -60 9 -4362
16 -4371 7z"/>
</g>
</svg>
